<svg width="41" height="26" viewBox="0 0 41 26" fill="none" xmlns="http://www.w3.org/2000/svg">
<path d="M16.5897 13.0006C17.6308 13.7824 18.9241 14.2461 20.3262 14.2461C21.7283 14.2461 23.0215 13.7824 24.0626 13.0006C24.8884 12.3805 25.6475 11.4437 26.3655 10.4163C26.8425 9.73376 27.1698 9.28065 27.39 8.98348C29.4228 6.13762 32.7536 4.28223 36.5173 4.28223V6.77319C33.5543 6.77319 30.9314 8.25095 29.3558 10.5096C29.2234 10.6875 29.0608 10.9252 28.8758 11.1954C28.5535 11.6663 28.1633 12.2365 27.7471 12.7619C27.1193 13.5542 26.5455 14.1284 26.5455 14.1284C24.9635 15.7382 22.7611 16.737 20.3262 16.737C17.8912 16.737 15.6888 15.7382 14.1068 14.1284C14.1068 14.1284 13.533 13.5542 12.9052 12.7619C12.4889 12.2364 12.0988 11.6664 11.7765 11.1954C11.5916 10.9252 11.4289 10.6875 11.2965 10.5096C9.72094 8.25095 7.09796 6.77319 4.13496 6.77319V4.28223C7.89868 4.28223 11.2295 6.13762 13.2623 8.98348C13.4825 9.28065 13.8098 9.73376 14.2868 10.4163C15.0048 11.4437 15.7639 12.3805 16.5897 13.0006Z" fill="#00DAE8"/>
<path d="M20.3262 19.2279C23.6461 19.2279 26.629 17.7847 28.6816 15.4915C28.6816 15.4915 29.0599 15.0792 29.491 14.464C29.5774 14.3405 29.6697 14.2072 29.767 14.0664C30.3433 13.233 31.1001 12.1383 31.9225 11.2892C33.061 10.0449 34.6978 9.26415 36.5175 9.26409V11.7551C35.4109 11.7551 34.4163 12.2361 33.7326 13.0005C33.7326 13.0005 33.2689 13.5229 32.8744 14.1283C32.48 14.7337 31.0633 16.7217 30.1173 17.6015C27.6304 20.1421 24.1624 21.7188 20.3262 21.7188C16.4901 21.7188 13.0219 20.1421 10.535 17.6015C9.58898 16.7217 8.17231 14.7337 7.77787 14.1283C7.38342 13.5229 6.91973 13.0005 6.91973 13.0005C6.23603 12.2361 5.24144 11.7551 4.13483 11.7551V9.26409C5.95448 9.26415 7.59136 10.0449 8.72985 11.2892C9.55218 12.1383 10.3091 13.233 10.8853 14.0664C10.9826 14.2072 11.0749 14.3405 11.1613 14.464C11.5924 15.0792 11.9707 15.4915 11.9707 15.4915C14.0233 17.7847 17.0063 19.2279 20.3262 19.2279Z" fill="#00DAE8"/>
<path d="M4.86387 14.4831C4.51434 14.2461 4.13477 14.2461 4.13477 14.2461L4.13477 16.7371H6.6801C6.59304 16.5963 6.35061 16.2454 6.06315 15.859C6.00182 15.7765 5.93967 15.6896 5.87619 15.6009C5.59152 15.2028 5.27744 14.7635 4.86387 14.4831Z" fill="#00DAE8"/>
<path d="M11.695 21.719H4.13477V19.2281H8.64316C9.55336 20.1765 10.5781 21.014 11.695 21.719Z" fill="#00DAE8"/>
<path d="M35.7884 14.4831C36.138 14.2461 36.5175 14.2461 36.5175 14.2461L36.5175 16.7371H33.9722C34.0593 16.5963 34.3017 16.2454 34.5892 15.859C34.6505 15.7765 34.7126 15.6896 34.7761 15.6009C35.0608 15.2028 35.3749 14.7635 35.7884 14.4831Z" fill="#00DAE8"/>
<path d="M28.9573 21.719H36.5175V19.2281H32.0091C31.099 20.1765 30.0742 21.014 28.9573 21.719Z" fill="#00DAE8"/>
</svg>
